<svg width="28" height="28" viewBox="0 0 28 28" fill="none" xmlns="http://www.w3.org/2000/svg">
<path d="M12.8319 6.84241C12.3597 6.84241 11.9766 7.22559 11.9766 7.69772V8.55303V13.6849V14.5402C11.9766 15.0124 12.3597 15.3955 12.8319 15.3955H13.6872H17.1084H17.9638C18.4359 15.3955 18.8191 15.0124 18.8191 14.5402C18.8191 14.0681 18.4359 13.6849 17.9638 13.6849H17.1084H13.6872V8.55303V7.69772C13.6872 7.22559 13.304 6.84241 12.8319 6.84241Z" fill="url(#paint0_linear_525_349)"/>
<path d="M13.685 0C6.1259 0 0 5.97164 0 13.685C0 21.1495 6.1259 27.37 13.685 27.37C21.2441 27.37 27.37 21.1495 27.37 13.685C27.37 5.97164 21.2441 0 13.685 0ZM13.685 2.48818C19.8681 2.48818 24.8818 7.46455 24.8818 13.685C24.8818 19.6566 19.8681 24.8818 13.685 24.8818C7.50187 24.8818 2.48818 19.6566 2.48818 13.685C2.48818 7.46455 7.50187 2.48818 13.685 2.48818Z" fill="url(#paint1_linear_525_349)"/>
<defs>
<linearGradient id="paint0_linear_525_349" x1="12.0726" y1="7.33846" x2="19.0444" y2="7.48552" gradientUnits="userSpaceOnUse">
<stop stop-color="#315A98"/>
<stop offset="1" stop-color="#487CBF"/>
</linearGradient>
<linearGradient id="paint1_linear_525_349" x1="0.383992" y1="1.58738" x2="28.2646" y2="2.32249" gradientUnits="userSpaceOnUse">
<stop stop-color="#315A98"/>
<stop offset="1" stop-color="#487CBF"/>
</linearGradient>
</defs>
</svg>
