<svg width="28" height="28" viewBox="0 0 28 28" fill="none" xmlns="http://www.w3.org/2000/svg">
<path d="M22.1085 27.3724H5.26393C3.86785 27.3724 2.52895 26.8178 1.54177 25.8306C0.554591 24.8434 0 23.5045 0 22.1085V7.36946C0 5.97338 0.554591 4.63448 1.54177 3.6473C2.52895 2.66012 3.86785 2.10553 5.26393 2.10553H22.1085C23.5046 2.10553 24.8435 2.66012 25.8307 3.6473C26.8178 4.63448 27.3724 5.97338 27.3724 7.36946V22.1085C27.3724 23.5045 26.8178 24.8434 25.8307 25.8306C24.8435 26.8178 23.5046 27.3724 22.1085 27.3724V27.3724ZM5.26393 4.2111C4.42628 4.2111 3.62294 4.54386 3.03063 5.13616C2.43833 5.72847 2.10557 6.53181 2.10557 7.36946V22.1085C2.10557 22.9461 2.43833 23.7495 3.03063 24.3418C3.62294 24.9341 4.42628 25.2668 5.26393 25.2668H22.1085C22.9461 25.2668 23.7495 24.9341 24.3418 24.3418C24.9341 23.7495 25.2669 22.9461 25.2669 22.1085V7.36946C25.2669 6.53181 24.9341 5.72847 24.3418 5.13616C23.7495 4.54386 22.9461 4.2111 22.1085 4.2111H5.26393Z" fill="url(#paint0_linear_525_354)"/>
<path d="M26.3196 10.5279H1.05279C0.77357 10.5279 0.505789 10.417 0.308354 10.2195C0.110918 10.0221 0 9.7543 0 9.47509C0 9.19587 0.110918 8.92809 0.308354 8.73066C0.505789 8.53322 0.77357 8.4223 1.05279 8.4223H26.3196C26.5989 8.4223 26.8666 8.53322 27.0641 8.73066C27.2615 8.92809 27.3724 9.19587 27.3724 9.47509C27.3724 9.7543 27.2615 10.0221 27.0641 10.2195C26.8666 10.417 26.5989 10.5279 26.3196 10.5279Z" fill="url(#paint1_linear_525_354)"/>
<path d="M8.42193 6.31672C8.14271 6.31672 7.87493 6.2058 7.67749 6.00836C7.48006 5.81093 7.36914 5.54315 7.36914 5.26393V1.05279C7.36914 0.77357 7.48006 0.505789 7.67749 0.308354C7.87493 0.110918 8.14271 0 8.42193 0C8.70114 0 8.96892 0.110918 9.16636 0.308354C9.36379 0.505789 9.47471 0.77357 9.47471 1.05279V5.26393C9.47471 5.54315 9.36379 5.81093 9.16636 6.00836C8.96892 6.2058 8.70114 6.31672 8.42193 6.31672Z" fill="url(#paint2_linear_525_354)"/>
<path d="M18.9512 6.31672C18.672 6.31672 18.4042 6.2058 18.2068 6.00836C18.0094 5.81093 17.8984 5.54315 17.8984 5.26393V1.05279C17.8984 0.77357 18.0094 0.505789 18.2068 0.308354C18.4042 0.110918 18.672 0 18.9512 0C19.2304 0 19.4982 0.110918 19.6957 0.308354C19.8931 0.505789 20.004 0.77357 20.004 1.05279V5.26393C20.004 5.54315 19.8931 5.81093 19.6957 6.00836C19.4982 6.2058 19.2304 6.31672 18.9512 6.31672Z" fill="url(#paint3_linear_525_354)"/>
<defs>
<linearGradient id="paint0_linear_525_354" x1="0.384026" y1="3.57093" x2="28.2637" y2="4.36728" gradientUnits="userSpaceOnUse">
<stop stop-color="#315A98"/>
<stop offset="1" stop-color="#487CBF"/>
</linearGradient>
<linearGradient id="paint1_linear_525_354" x1="0.384026" y1="8.54442" x2="25.3529" y2="17.1029" gradientUnits="userSpaceOnUse">
<stop stop-color="#315A98"/>
<stop offset="1" stop-color="#487CBF"/>
</linearGradient>
<linearGradient id="paint2_linear_525_354" x1="7.39868" y1="0.36635" x2="9.54486" y2="0.385213" gradientUnits="userSpaceOnUse">
<stop stop-color="#315A98"/>
<stop offset="1" stop-color="#487CBF"/>
</linearGradient>
<linearGradient id="paint3_linear_525_354" x1="17.928" y1="0.36635" x2="20.0742" y2="0.385213" gradientUnits="userSpaceOnUse">
<stop stop-color="#315A98"/>
<stop offset="1" stop-color="#487CBF"/>
</linearGradient>
</defs>
</svg>
